<?xml version="1.0" encoding="utf-8"?>
<!-- Generator: Adobe Illustrator 25.0.0, SVG Export Plug-In . SVG Version: 6.00 Build 0)  -->
<svg version="1.1" id="Capa_1" xmlns="http://www.w3.org/2000/svg" xmlns:xlink="http://www.w3.org/1999/xlink" x="0px" y="0px"
	 width="225px" height="31px" viewBox="0 0 225 31" style="enable-background:new 0 0 225 31;" xml:space="preserve">
<style type="text/css">
	.st0{fill:url(#SVGID_1_);}
	.st1{fill:url(#SVGID_2_);}
	.st2{fill:url(#SVGID_3_);}
	.st3{fill:url(#SVGID_4_);}
	.st4{fill:url(#SVGID_5_);}
	.st5{fill:url(#SVGID_6_);}
	.st6{fill:url(#SVGID_7_);}
	.st7{fill:url(#SVGID_8_);}
</style>
<linearGradient id="SVGID_1_" gradientUnits="userSpaceOnUse" x1="217.8645" y1="9.2329" x2="217.8645" y2="64.1235">
	<stop  offset="0" style="stop-color:#00B53E"/>
	<stop  offset="1" style="stop-color:#006830"/>
</linearGradient>
<polygon class="st0" points="210.7,25 213.2,22.5 216.6,25.9 222.5,20 225,22.4 216.6,30.8 "/>
<linearGradient id="SVGID_2_" gradientUnits="userSpaceOnUse" x1="205.587" y1="9.2329" x2="205.587" y2="64.1235">
	<stop  offset="0" style="stop-color:#00B53E"/>
	<stop  offset="1" style="stop-color:#006830"/>
</linearGradient>
<circle class="st1" cx="205.6" cy="14" r="5"/>
<linearGradient id="SVGID_3_" gradientUnits="userSpaceOnUse" x1="205.4964" y1="9.2329" x2="205.4964" y2="64.1235">
	<stop  offset="0" style="stop-color:#00B53E"/>
	<stop  offset="1" style="stop-color:#006830"/>
</linearGradient>
<path class="st2" d="M207.3,25.8c0-0.9,0.1-1.7,0.3-2.5c-0.7,0.1-1.4,0.1-2.1,0.1c-11.4,0-15-9.5-15-9.5s4.5-9.7,15-9.3
	c10.9,0,15.1,9.3,15.1,9.3s-0.3,0.8-1,1.9c1.1,0.2,2.1,0.6,3.1,1.2c1-1.7,1.3-3,1.3-3s-4.2-12.5-18.5-12.5
	C191.7,0.8,187,13.9,187,13.9s3.4,12.7,18.5,12.7c0.6,0,1.2,0,1.8-0.1C207.3,26.2,207.3,26,207.3,25.8z"/>
<g>
	<g>
		<path d="M0,1.9h10.2c5,0,8.8,3.2,8.8,7.8s-3.8,7.8-8.8,7.8h-6v7.9H0V1.9z M9.8,13.6c2.9,0,4.9-1.5,4.9-3.9s-2-3.9-4.9-3.9H4.3v7.7
			H9.8z"/>
	</g>
	<g>
		<path d="M35.1,20.4l2.6,2.7c-1.5,1.6-4.6,2.7-7.2,2.7c-5.1,0-9.2-3.9-9.2-9.3c0-5.3,4-9.2,9-9.2c5.5,0,8.7,4.1,8.7,10.7H25.6
			c0.5,2.4,2.4,4.1,4.9,4.1C32.1,22.2,34.1,21.4,35.1,20.4z M25.6,14.8h9.3c-0.5-2.2-2-3.8-4.5-3.8C28.1,11,26.3,12.5,25.6,14.8z"/>
	</g>
	<g>
		<path d="M53.2,7.3v3.6c-3.8,0-6.3,2.3-6.3,5.6v8.9h-4.2V7.8h4.2v3.4C48,8.8,50.3,7.3,53.2,7.3z"/>
	</g>
	<g>
		<path d="M72.4,7.8v17.7h-4.2v-2.4c-1.1,1.6-3.1,2.8-5.5,2.8c-3.9,0-6.6-2.8-6.6-6.8V7.8h4v10.4c0,2.4,1.5,4.1,3.7,4.1
			c2.2,0,4-1.5,4.3-3.4V7.8H72.4z M63.9,5.8H61l4-5.2l3.9,0.8L63.9,5.8z"/>
	</g>
</g>
<linearGradient id="SVGID_4_" gradientUnits="userSpaceOnUse" x1="90.6252" y1="-15.3489" x2="90.6252" y2="44.2874">
	<stop  offset="0" style="stop-color:#00B53E"/>
	<stop  offset="1" style="stop-color:#006830"/>
</linearGradient>
<path class="st3" d="M79.6,13.7c0-6.6,5.8-12.2,12.6-12.2c3.7,0,7,1.6,9.3,4l-4.3,3.8c-1.2-1.5-3.1-2.5-5.1-2.5
	c-3.6,0-6.6,3.1-6.6,6.8c0,3.7,3,6.9,6.6,6.9c2,0,3.8-1,5.1-2.5l4.2,3.8c-2.3,2.5-5.7,4.1-9.3,4.1C85.4,25.9,79.6,20.3,79.6,13.7z"
	/>
<linearGradient id="SVGID_5_" gradientUnits="userSpaceOnUse" x1="112.9949" y1="-15.3489" x2="112.9949" y2="44.2874">
	<stop  offset="0" style="stop-color:#00B53E"/>
	<stop  offset="1" style="stop-color:#006830"/>
</linearGradient>
<path class="st4" d="M121.7,14.2v11.3h-5.5v-10c0-2-1.2-3.3-3-3.3c-1.8,0-3.1,1.3-3.1,3.1v10.2h-5.8V1.5h5.8v8.2
	c1.1-1.5,2.9-2.4,5.2-2.4C119,7.3,121.7,10.2,121.7,14.2z"/>
<linearGradient id="SVGID_6_" gradientUnits="userSpaceOnUse" x1="133.7214" y1="-15.3489" x2="133.7214" y2="44.2874">
	<stop  offset="0" style="stop-color:#00B53E"/>
	<stop  offset="1" style="stop-color:#006830"/>
</linearGradient>
<path class="st5" d="M138,19.7l3.4,3.5c-1.6,1.6-4.6,2.7-7.3,2.7c-5.5,0-9.5-3.9-9.5-9.3c0-5.4,3.9-9.2,9.2-9.2
	c5.6,0,8.9,4.1,8.9,10.9h-12.6c0.5,1.8,2,3,3.8,3C135.4,21.2,136.9,20.6,138,19.7z M130.2,14.7h7.2c-0.5-1.6-1.7-2.7-3.4-2.7
	C132.2,12,130.8,13,130.2,14.7z"/>
<linearGradient id="SVGID_7_" gradientUnits="userSpaceOnUse" x1="153.4725" y1="-15.3489" x2="153.4725" y2="44.2874">
	<stop  offset="0" style="stop-color:#00B53E"/>
	<stop  offset="1" style="stop-color:#006830"/>
</linearGradient>
<path class="st6" d="M144.9,16.6c0-5,4.5-9.2,9.9-9.2c3,0,5.4,1.2,7.2,3.1l-3.8,3.2c-0.8-0.9-2.1-1.5-3.4-1.5c-2.3,0-4.2,2-4.2,4.4
	c0,2.4,2,4.5,4.2,4.5c1.3,0,2.6-0.7,3.5-1.6l3.8,3.1c-1.7,2-4.2,3.3-7.3,3.3C149.4,25.9,144.9,21.6,144.9,16.6z"/>
<linearGradient id="SVGID_8_" gradientUnits="userSpaceOnUse" x1="173.5658" y1="-15.3489" x2="173.5658" y2="44.2874">
	<stop  offset="0" style="stop-color:#00B53E"/>
	<stop  offset="1" style="stop-color:#006830"/>
</linearGradient>
<path class="st7" d="M182.6,25.5H176l-3.8-6.3l-1.8,2.1v4.2h-5.8V1.5h5.8v13.2l5.6-7h6.6l-6.5,7.7L182.6,25.5z"/>
</svg>
